<svg xmlns="http://www.w3.org/2000/svg" viewBox="0 0 133.8 202.3"><defs><style>.cls-1{fill:#133444;}.cls-2{fill:#c42370;}.cls-3{fill:#1c4d6b;}.cls-4{fill:#1d4259;}.cls-5{fill:#4b6b9a;}.cls-6{fill:#343535;}.cls-7{fill:#3e5578;}.cls-8{fill:#6db2d8;}.cls-9{fill:#335f8a;}.cls-10{fill:#529bba;}</style></defs><title>portis</title><g id="Layer_2" data-name="Layer 2"><g id="Layer_1-2" data-name="Layer 1"><g id="Layer_2-2" data-name="Layer 2-2"><g id="Layer_1-2-2" data-name="Layer 1-2-2"><polygon class="cls-1" points="2 116.3 6.9 114.2 66.9 88.1 131.8 116.3 107.4 166.7 47.8 175.1 3 126.7 2 116.3"/><path class="cls-2" d="M118.3,85.3A66.63,66.63,0,0,0,75.8,61.8c-.4,0-.7-.1-1.1-.1a67.83,67.83,0,0,0-15.6,0c-.4,0-.7.1-1.1.1A66.63,66.63,0,0,0,15.5,85.3h0l-2.7,4.5L8.3,97.3,5,102.8H5a.52.52,0,0,1-.2.4v.1l7.2,4.3,46,27.2,8.9,5.2V75L58,79V69.3l8.9-4,8.9,4L121,89.8Z"/><path class="cls-3" d="M133.8,132.5a71.33,71.33,0,0,1-26.2,54.9,68.26,68.26,0,0,1-21.1,11.7A61.77,61.77,0,0,1,67,202.3C30,202.3.1,169.4.1,132.5a67.8,67.8,0,0,1,2-16.2L67,154.7l64.9-38.4A73.21,73.21,0,0,1,133.8,132.5Z"/><polygon points="59.1 61.6 66.9 65.2 58 69.2 58 61.2 59.1 61.6"/><polygon points="58 79 66.9 74.9 66.9 139.9 58 134.7 58 79"/><polygon class="cls-4" points="66.9 74.9 66.9 139.9 129.1 103.2 66.9 74.9"/><polygon class="cls-5" points="66.9 0 66.9 74.9 129.1 103.2 66.9 0"/><path class="cls-6" d="M66.9,74.9v65L58,134.7,4.8,103.2h0a.52.52,0,0,1,.2-.4H5l7.8-12.9L58,69.4v9.8Z"/><polygon class="cls-7" points="66.9 74.9 66.9 139.9 58 134.7 4.8 103.2 4.7 103.2 4.8 103.1 58 79 66.9 74.9"/><polygon class="cls-8" points="66.9 0 66.9 74.9 4.7 103.2 66.9 0"/><path class="cls-9" d="M41.7,197c.9.4,1.9.8,2.8,1.2C43.6,197.8,42.7,197.4,41.7,197Z"/><path class="cls-9" d="M44.5,198.1a24.69,24.69,0,0,0,2.9,1C46.4,198.8,45.5,198.5,44.5,198.1Z"/><path class="cls-9" d="M49.9,199.9c.8.2,1.5.4,2.2.6Z"/><path class="cls-8" d="M2,116.3l64.9,38.4a72.82,72.82,0,0,1-4.7,17c-5.2,12.6-15.7,25.8-36,15.7h0A71.53,71.53,0,0,1,0,132.4,67.61,67.61,0,0,1,2,116.3Z"/><path class="cls-10" d="M107.4,187.5h0c-.4.3,0,0-1.3,1.1l-.6.4-.9.6-1.1.8c1.1-.8-.9.6-1.3.9a6.73,6.73,0,0,0-1.1.7l-.7.5a3,3,0,0,0-.7.5s-.3.3-.4.3c.4-.3-.5.2-.9.5a5.39,5.39,0,0,0-1.3.7l-1.4.7-.6.3c-.4.2-.2,0-.6.3s-.9.4-1.4.7a14.72,14.72,0,0,1-1.7.8c1.7-.8,0,0-.9.4.9-.4-1.6.6-2.7,1-.4.1-2.6.8-3,.9s-.9.3-1.3.4c-.8.2-1.5.4-2.2.6-.3.1-.6.1-.8.2l-.5.1-1.2.3c-.4.1-.7.1-1.1.2s-.7.1-1,.2-.8.1-1.1.2a.75.75,0,0,0-.5.1l-.8.1h-.4c-.3,0-.6.1-.9.1s-.8.1-1.2.1H61.6c-.4,0-.8-.1-1.2-.1a2.77,2.77,0,0,1-.9-.1h-.4c-.3,0-.6-.1-.8-.1a.75.75,0,0,1-.5-.1,4.25,4.25,0,0,1-1.1-.2,3.55,3.55,0,0,1-1-.2c-.3-.1-.7-.1-1.1-.2l-1.2-.3-.5-.1a1.88,1.88,0,0,1-.8-.2c-.8-.2-1.5-.4-2.2-.6l-1.3-.4a5.64,5.64,0,0,1-1.2-.4c-1-.3-1.9-.7-2.9-1a23.58,23.58,0,0,1-2.8-1.2c-.4-.2-.9-.4-1.4-.6a6.11,6.11,0,0,1-1.4-.7,5.39,5.39,0,0,1-1.3-.7h0c-.4-.2-.9-.5-1.3-.7a8.79,8.79,0,0,1-1-.6c-1-.6-1.6-1-1-.6l-.6-.4-1.1-.7-.4-.2-1-.7c-.4-.3-.8-.5-1.2-.8s-.9-.6-1.3-.9-.8-.7-1.1-.9l-.4-.3a3.92,3.92,0,0,1-1-.8h0c20.3,10.1,30.7-3.3,35.9-15.8a78,78,0,0,0,4.7-17,73.06,73.06,0,0,0,4.7,17.2C76.9,184.2,87.1,197.5,107.4,187.5Z"/><path class="cls-9" d="M81.7,200.5c.8-.2,1.5-.4,2.2-.6Z"/><path class="cls-9" d="M86.4,199.1c1-.3,1.9-.6,2.9-1C88.3,198.5,87.4,198.8,86.4,199.1Z"/><path class="cls-9" d="M89.1,198.2c.9-.4,2.1-.8,3-1.3C91.1,197.4,90,197.8,89.1,198.2Z"/><path class="cls-5" d="M133.8,132.5a71.33,71.33,0,0,1-26.2,54.9c-20.3,10.1-30.8-3.2-36-15.7a78,78,0,0,1-4.7-17l64.9-38.4A67.8,67.8,0,0,1,133.8,132.5Z"/></g></g></g></g></svg>